<svg xmlns="http://www.w3.org/2000/svg"  viewBox="0 0 100 100" width="100px" height="100px"><path d="M51.626,99.009c-2.369,0-10.487-0.564-15.481-7.825c-0.747-1.087-2.074-2.606-3.609-4.365 C25.977,79.31,15,66.741,15,48.5c0-2.998-0.023-5.68-0.044-8.089l-0.003-0.338c-0.129-14.44-0.188-21.031,5.951-27.169 c6.924-6.925,20.799-7.959,28.453-7.959c1.243,0,2.161,0.029,2.646,0.048c0.469-0.019,1.39-0.047,2.634-0.047 c7.657,0,21.536,1.034,28.46,7.958c6.138,6.137,6.079,12.729,5.95,27.17l-0.003,0.337C89.023,42.82,89,45.502,89,48.5 c0,18.241-10.977,30.81-17.535,38.319c-1.535,1.759-2.862,3.277-3.607,4.363c-4.996,7.262-13.128,7.827-15.501,7.827 c-0.135,0-0.252-0.002-0.351-0.004C51.9,99.007,51.773,99.009,51.626,99.009z" opacity=".35"/><path fill="#f2f2f2" d="M49.626,97.009c-2.369,0-10.487-0.564-15.481-7.825c-0.747-1.087-2.074-2.606-3.609-4.365 C23.977,77.31,13,64.741,13,46.5c0-2.998-0.023-5.68-0.044-8.089l-0.003-0.338c-0.129-14.44-0.188-21.031,5.951-27.169 c6.924-6.925,20.799-7.959,28.453-7.959c1.243,0,2.161,0.029,2.646,0.048c0.469-0.019,1.39-0.047,2.634-0.047 c7.657,0,21.536,1.034,28.46,7.958c6.138,6.137,6.079,12.729,5.95,27.17l-0.003,0.337C87.023,40.82,87,43.502,87,46.5 c0,18.241-10.977,30.81-17.535,38.319c-1.535,1.759-2.862,3.277-3.607,4.363c-4.996,7.262-13.128,7.827-15.501,7.827 c-0.135,0-0.252-0.002-0.351-0.004C49.9,97.007,49.773,97.009,49.626,97.009z"/><path fill="#d9eeff" d="M76.5,15.5c-7-7-26.5-6-26.5-6s-19.5-1-26.5,6c-5,5-4,11-4,31s15.432,32.357,20,39 c3.736,5.433,10.5,5,10.5,5s6.764,0.433,10.5-5c4.568-6.643,20-19,20-39S81.5,20.5,76.5,15.5z"/><path fill="none" stroke="#40396e" stroke-linecap="round" stroke-linejoin="round" stroke-miterlimit="10" stroke-width="3" d="M76.5,15.5c-7-7-26.5-6-26.5-6s-19.5-1-26.5,6c-5,5-4,11-4,31s15.432,32.357,20,39c3.736,5.433,10.5,5,10.5,5s6.764,0.433,10.5-5 c4.568-6.643,20-19,20-39S81.5,20.5,76.5,15.5z"/><path fill="#40396e" d="M23.004,29.001c0,0,0.856-1.999,6.991-1.999s9.584,5.996,13.36,5.996c1.239,0,1.65-1.077,1.65-1.506 c0-3.567-7.603-7.498-15.019-7.498S23.004,29.001,23.004,29.001z"/><path fill="#40396e" d="M42,40c0,0-3.134,3-7,3s-7-3-7-3s3.134-3,7-3S42,40,42,40z"/><path fill="#40396e" d="M76.999,29.001c0,0-0.856-1.999-6.991-1.999c-6.135,0-9.584,5.996-13.36,5.996 c-1.239,0-1.65-1.077-1.65-1.506c0-3.567,7.603-7.498,15.019-7.498S76.999,29.001,76.999,29.001z"/><path fill="#40396e" d="M58.002,40c0,0,3.134,3,7,3c3.866,0,7-3,7-3s-3.134-3-7-3C61.136,37,58.002,40,58.002,40z"/><polygon fill="#40396e" points="45,74 50,74 50,89 48,89"/><polygon fill="#40396e" points="55,74 50,74 50,89 52,89"/><path fill="#40396e" d="M70,56c0,0-2.323,5.882-4,7s-6.247,1.333-8.065,0.461c-0.981-0.471-2.4-2.111-3.465-3.473 C53.607,60.544,52.337,61,50,61s-3.607-0.456-4.47-1.012c-1.065,1.362-2.484,3.002-3.465,3.473C40.247,64.333,35.677,64.118,34,63 s-4-7-4-7h-3c0,0,2.741,8.354,5,10c2.657,1.937,11.264,2.824,14,1c3-2,4-6,4-6s1,4,4,6c2.736,1.824,11.343,0.937,14-1 c2.259-1.646,5-10,5-10H70z"/></svg>